<svg width="195" height="40" viewBox="0 0 195 40" fill="none" xmlns="http://www.w3.org/2000/svg">
<g clip-path="url(#clip0_350_3801)">
<path d="M30.987 27.9893H30.9561V28.0163H30.987V27.9893Z" fill="url(#paint0_linear_350_3801)"/>
<path d="M30.9749 27.9156L30.8691 28.0117L30.9644 28.1169L31.0701 28.0208L30.9749 27.9156Z" fill="url(#paint1_linear_350_3801)"/>
<path d="M30.9789 27.981L30.9443 28.001L30.9638 28.0348L30.9984 28.0148L30.9789 27.981Z" fill="url(#paint2_linear_350_3801)"/>
<path d="M30.999 27.9251L30.8779 27.9951L30.9453 28.112L31.0664 28.042L30.999 27.9251Z" fill="url(#paint3_linear_350_3801)"/>
<path d="M24.4824 6.16733L24.3596 5.93733L24.3297 5.85333L22.5057 2.50033L21.4075 0.480325C21.3298 0.335981 21.2145 0.215397 21.0739 0.131351C20.9333 0.0473047 20.7726 0.00292969 20.6089 0.00292969C20.4451 0.00292969 20.2844 0.0473047 20.1438 0.131351C20.0032 0.215397 19.8879 0.335981 19.8102 0.480325L18.712 2.50033L16.888 5.85333L16.8581 5.93733L16.7353 6.16733L14.3992 10.7003L8.71858 21.7403L4.93186 29.0933L0.207697 38.2603C0.200708 38.2903 0.147799 38.3903 0.147799 38.4133C0.101796 38.4978 0.065938 38.5874 0.0409749 38.6803C0.0170218 38.7695 0.00263161 38.8611 -0.00195312 38.9533C-0.000841845 39.1077 0.0331961 39.2601 0.0978813 39.4003V39.4103C0.177924 39.5746 0.299077 39.7153 0.449544 39.8186C0.600011 39.922 0.774656 39.9846 0.956455 40.0003H1.2899C1.16572 39.869 1.09766 39.6942 1.10022 39.5133C1.09877 39.3251 1.17036 39.1437 1.29989 39.0073L1.31985 38.9833C1.31985 38.9833 1.31985 38.9773 1.32983 38.9673L1.41969 38.8673L7.48263 32.1673L7.93888 31.6673L11.8384 27.3673L16.9399 21.7403L17.0538 21.6073L17.0937 21.5643L20.7207 17.7573L27.0372 11.1243L24.4824 6.16733Z" fill="url(#paint4_linear_350_3801)"/>
<path d="M41.2146 38.953C41.2135 39.1074 41.1795 39.2598 41.1148 39.4V39.41C41.0341 39.5737 40.9127 39.7139 40.7624 39.8172C40.6121 39.9205 40.4378 39.9834 40.2562 40H39.9238C40.048 39.8686 40.116 39.6938 40.1135 39.513C40.1145 39.3248 40.043 39.1435 39.9138 39.007L39.8938 38.983C39.8938 38.983 39.8938 38.977 39.8838 38.967L39.794 38.867L33.7311 32.167L33.2748 31.667L29.3713 27.367L24.2727 21.74L24.1679 21.61L20.7236 17.76L27.0402 11.127L32.5011 21.74L36.2878 29.093L41.007 38.26C41.067 38.3711 41.1149 38.4885 41.1497 38.61C41.1831 38.7218 41.2048 38.8367 41.2146 38.953Z" fill="url(#paint5_linear_350_3801)"/>
<path d="M30.9789 27.981L30.9443 28.001L30.9638 28.0348L30.9984 28.0148L30.9789 27.981Z" fill="url(#paint6_linear_350_3801)"/>
<path d="M31.3321 26.0534C31.0759 26.0527 30.8223 26.1056 30.5878 26.209C30.3533 26.3123 30.1429 26.4637 29.9704 26.6534C29.971 26.6554 29.971 26.6575 29.9704 26.6594C29.9254 26.7204 29.8775 26.7794 29.8286 26.8404C29.6828 27.0204 29.5337 27.1961 29.3813 27.3674C28.2824 28.6182 26.9464 29.638 25.4509 30.3674C23.9424 31.1032 22.2867 31.4856 20.6089 31.4856C18.9311 31.4856 17.2753 31.1032 15.7669 30.3674C14.2725 29.6376 12.9375 28.6179 11.8394 27.3674C11.7067 27.2184 11.5759 27.0674 11.4491 26.9094C11.3632 26.8094 11.2814 26.7014 11.2005 26.5954L11.1955 26.5904C10.9384 26.3326 10.6108 26.1569 10.254 26.0855C9.89729 26.0141 9.52742 26.0503 9.19118 26.1894C8.85494 26.3285 8.56742 26.5644 8.36496 26.8672C8.1625 27.1699 8.05419 27.526 8.05372 27.8904C8.05271 28.2058 8.13392 28.5161 8.28933 28.7904C8.37851 28.9164 8.46969 29.0404 8.56287 29.1624V29.1674C8.81645 29.4994 9.08001 29.8224 9.35256 30.1334C12.2478 33.4334 16.2222 35.4654 20.6059 35.4654C24.9896 35.4654 28.972 33.4264 31.8692 30.1224C32.1281 29.8284 32.377 29.5244 32.616 29.2104C32.7358 29.0554 32.8516 28.8974 32.9664 28.7354C33.101 28.4777 33.1719 28.1913 33.173 27.9004C33.1728 27.4115 32.9787 26.9428 32.6335 26.5972C32.2883 26.2516 31.8202 26.0574 31.3321 26.0574V26.0534ZM30.9827 27.9944L30.9517 28.0174C30.96 28.0077 30.969 27.9986 30.9787 27.9904L30.9827 27.9944ZM30.9887 28.0174L30.9138 28.0714C30.9427 28.0394 30.9737 28.0074 31.0056 27.9714L31.0176 27.9844L30.9867 28.0074" fill="#092E5B"/>
<path d="M30.9827 27.9887V27.9947L30.9517 28.0167C30.9607 28.0077 30.9687 27.9977 30.9787 27.9887H30.9827ZM31.0047 27.9767L31.0166 27.9887V27.9947L30.9857 28.0167L30.9118 28.0707C30.9398 28.0377 30.9707 28.0067 31.0027 27.9707L31.0047 27.9767ZM8.67969 28.6807C8.68041 29.0472 8.78949 29.4052 8.99317 29.7097C9.08502 29.8227 9.17986 29.9347 9.2747 30.0447L9.35657 30.1377C12.2518 33.4377 16.2262 35.4697 20.6089 35.4697C24.9916 35.4697 28.976 33.4307 31.8732 30.1267L31.9521 30.0347C32.033 29.9407 32.1138 29.8447 32.1927 29.7497C32.1943 29.7465 32.1963 29.7435 32.1987 29.7407C32.449 29.3688 32.557 28.9189 32.5028 28.4736C32.4486 28.0283 32.2358 27.6176 31.9035 27.3169C31.5712 27.0161 31.1418 26.8456 30.694 26.8365C30.2463 26.8275 29.8103 26.9806 29.4662 27.2677C29.4393 27.3017 29.4083 27.3367 29.3774 27.3677C29.2935 27.4627 29.2066 27.5567 29.1178 27.6497C29.1182 27.6513 29.1182 27.6531 29.1178 27.6547C28.0729 28.776 26.8305 29.6947 25.4529 30.3647C23.9443 31.1001 22.2886 31.4822 20.6109 31.4822C18.9332 31.4822 17.2775 31.1001 15.7689 30.3647C14.3842 29.6895 13.1355 28.7648 12.085 27.6367C12.0032 27.5497 11.9223 27.4597 11.8414 27.3697C11.8105 27.3347 11.7795 27.2997 11.7506 27.2647C11.4799 27.0354 11.1494 26.8884 10.7981 26.8409C10.4467 26.7935 10.0891 26.8476 9.76749 26.9969C9.44583 27.1463 9.17348 27.3846 8.98252 27.6838C8.79157 27.983 8.68996 28.3306 8.68967 28.6857" fill="url(#paint7_linear_350_3801)"/>
<path d="M35.243 4.67413V6.60913C35.2422 7.00467 35.0849 7.38375 34.8055 7.66326C34.526 7.94276 34.1474 8.09987 33.7525 8.10013H31.8187C31.4229 8.10013 31.0432 8.25764 30.7633 8.53801C30.4834 8.81837 30.3262 9.19863 30.3262 9.59513C30.3262 9.99163 30.4834 10.3719 30.7633 10.6523C31.0432 10.9326 31.4229 11.0901 31.8187 11.0901H33.7525C33.9484 11.0901 34.1425 11.1288 34.3235 11.204C34.5045 11.2791 34.669 11.3892 34.8075 11.5281C34.946 11.6669 35.0559 11.8317 35.1308 12.0131C35.2057 12.1945 35.2441 12.3889 35.244 12.5851V14.5201C35.2271 14.7267 35.2532 14.9346 35.3205 15.1306C35.3879 15.3266 35.4951 15.5065 35.6353 15.659C35.7755 15.8114 35.9458 15.9331 36.1353 16.0163C36.3249 16.0995 36.5296 16.1425 36.7365 16.1425C36.9435 16.1425 37.1482 16.0995 37.3377 16.0163C37.5273 15.9331 37.6975 15.8114 37.8378 15.659C37.978 15.5065 38.0852 15.3266 38.1526 15.1306C38.2199 14.9346 38.246 14.7267 38.2291 14.5201V12.5891C38.2304 12.193 38.3881 11.8135 38.6677 11.5335C38.9473 11.2534 39.3261 11.0954 39.7216 11.0941H41.6534C42.0492 11.0941 42.4289 10.9366 42.7088 10.6563C42.9887 10.3759 43.1459 9.99563 43.1459 9.59913C43.1459 9.20263 42.9887 8.82237 42.7088 8.54201C42.4289 8.26164 42.0492 8.10413 41.6534 8.10413H39.7206C39.3243 8.10281 38.9447 7.94419 38.6649 7.66303C38.3852 7.38187 38.2281 7.00109 38.2281 6.60413V4.67413C38.245 4.46752 38.2189 4.25966 38.1516 4.06364C38.0842 3.86763 37.977 3.68773 37.8368 3.53528C37.6966 3.38284 37.5263 3.26117 37.3367 3.17795C37.1472 3.09473 36.9425 3.05176 36.7355 3.05176C36.5286 3.05176 36.3239 3.09473 36.1343 3.17795C35.9448 3.26117 35.7745 3.38284 35.6343 3.53528C35.4941 3.68773 35.3869 3.86763 35.3195 4.06364C35.2522 4.25966 35.2261 4.46752 35.243 4.67413Z" fill="url(#paint8_linear_350_3801)"/>
<path d="M27.0354 11.1273L20.7189 17.7603L14.3994 10.7003L16.7325 6.16733L16.8553 5.93733L16.8853 5.85333L18.7093 2.50033L19.8074 0.480325C19.8852 0.335981 20.0005 0.215397 20.1411 0.131351C20.2817 0.0473047 20.4424 0.00292969 20.6061 0.00292969C20.7699 0.00292969 20.9305 0.0473047 21.0712 0.131351C21.2118 0.215397 21.327 0.335981 21.4048 0.480325L22.503 2.50033L24.3269 5.85333L24.3569 5.93733L24.4797 6.16733L27.0354 11.1273Z" fill="url(#paint9_linear_350_3801)"/>
<path d="M27.8617 18.4794C27.8617 18.734 27.7863 18.9828 27.6451 19.1945C27.5039 19.4062 27.3032 19.5711 27.0683 19.6685C26.8335 19.7659 26.5751 19.7913 26.3258 19.7416C26.0766 19.6918 25.8476 19.5692 25.668 19.3891C25.4883 19.209 25.366 18.9796 25.3166 18.7298C25.2671 18.4801 25.2927 18.2213 25.3901 17.9862C25.4875 17.751 25.6523 17.5501 25.8637 17.4088C26.0752 17.2675 26.3237 17.1922 26.5779 17.1924C26.7465 17.1924 26.9136 17.2257 27.0694 17.2904C27.2252 17.3551 27.3668 17.4499 27.486 17.5694C27.6053 17.6889 27.6998 17.8308 27.7643 17.9869C27.8287 18.1431 27.8619 18.3104 27.8617 18.4794Z" fill="#092E5B"/>
<path d="M15.9818 18.4794C15.9818 18.7339 15.9065 18.9828 15.7653 19.1944C15.6241 19.406 15.4235 19.571 15.1887 19.6684C14.9539 19.7658 14.6956 19.7913 14.4463 19.7417C14.1971 19.692 13.9681 19.5694 13.7884 19.3894C13.6087 19.2094 13.4864 18.9801 13.4368 18.7305C13.3872 18.4808 13.4127 18.222 13.5099 17.9869C13.6072 17.7517 13.7718 17.5507 13.9831 17.4093C14.1944 17.2679 14.4429 17.1924 14.697 17.1924C15.0377 17.1924 15.3646 17.328 15.6055 17.5693C15.8465 17.8107 15.9818 18.138 15.9818 18.4794Z" fill="#092E5B"/>
<path d="M70.2915 9.96648V13.1075C70.2915 13.2032 70.2535 13.295 70.1859 13.3627C70.1183 13.4304 70.0267 13.4685 69.9311 13.4685H64.3014C64.2058 13.4685 64.1142 13.5065 64.0466 13.5742C63.979 13.6419 63.941 13.7337 63.941 13.8295V33.1065C63.941 33.2025 63.9029 33.2946 63.8352 33.3625C63.7674 33.4303 63.6755 33.4685 63.5796 33.4685H59.5233C59.4277 33.4682 59.336 33.43 59.2684 33.3621C59.2009 33.2942 59.1629 33.2023 59.1629 33.1065V13.8305C59.1627 13.7346 59.1245 13.6428 59.0567 13.5752C58.989 13.5075 58.8972 13.4695 58.8015 13.4695H53.1759C53.0802 13.4695 52.9884 13.4315 52.9207 13.3638C52.8529 13.2961 52.8147 13.2043 52.8145 13.1085V9.96648C52.8147 9.87064 52.8529 9.77883 52.9207 9.71115C52.9884 9.64348 53.0802 9.60548 53.1759 9.60548H69.9281C69.9757 9.60509 70.0228 9.61413 70.0669 9.63209C70.111 9.65006 70.1511 9.67659 70.1849 9.71015C70.2186 9.74371 70.2455 9.78364 70.2638 9.82763C70.2821 9.87163 70.2915 9.91882 70.2915 9.96648Z" fill="#082952"/>
<path d="M91.6221 14.8905V33.1065C91.6221 33.2023 91.5842 33.2942 91.5166 33.3621C91.449 33.43 91.3574 33.4682 91.2617 33.4685H87.1685C87.0726 33.4685 86.9807 33.4303 86.9129 33.3625C86.8452 33.2946 86.8071 33.2025 86.8071 33.1065V32.0335C86.8074 31.9623 86.7867 31.8927 86.7476 31.8333C86.7085 31.7739 86.6528 31.7274 86.5874 31.6996C86.522 31.6718 86.4499 31.664 86.3801 31.6772C86.3103 31.6903 86.246 31.7238 86.1951 31.7735C85.6696 32.2828 85.0621 32.6997 84.3981 33.0065C83.3884 33.4777 82.2863 33.7169 81.1724 33.7065C79.6942 33.7065 78.3861 33.3931 77.2479 32.7665C76.1007 32.13 75.1683 31.1661 74.5694 29.9975C73.9205 28.7781 73.596 27.3251 73.596 25.6385V14.8905C73.5963 14.7946 73.6345 14.7028 73.7022 14.6352C73.7699 14.5675 73.8617 14.5295 73.9574 14.5295H78.0137C78.1093 14.5295 78.2009 14.5675 78.2685 14.6352C78.3361 14.7029 78.3741 14.7947 78.3741 14.8905V24.9555C78.3741 26.4608 78.7494 27.6175 79.5002 28.4255C80.251 29.2335 81.2749 29.6381 82.5721 29.6395C83.8919 29.6395 84.9272 29.2348 85.678 28.4255C86.4287 27.6161 86.8041 26.4595 86.8041 24.9555V14.8905C86.8044 14.7946 86.8425 14.7028 86.9103 14.6352C86.978 14.5675 87.0698 14.5295 87.1655 14.5295H91.2587C91.3063 14.5291 91.3535 14.5381 91.3975 14.5561C91.4416 14.5741 91.4817 14.6006 91.5155 14.6341C91.5493 14.6677 91.5761 14.7076 91.5944 14.7516C91.6127 14.7956 91.6221 14.8428 91.6221 14.8905Z" fill="#082952"/>
<path d="M102.256 18.4605C102.161 18.4605 102.069 18.4986 102.001 18.5665C101.933 18.6344 101.895 18.7265 101.895 18.8225V27.6225C101.895 28.2605 102.049 28.7218 102.356 29.0065C102.664 29.2911 103.181 29.4338 103.909 29.4345H105.767C105.862 29.4345 105.954 29.4725 106.021 29.5402C106.089 29.6079 106.127 29.6997 106.127 29.7955V33.1065C106.127 33.2023 106.089 33.2942 106.021 33.3621C105.954 33.43 105.862 33.4682 105.767 33.4685H103.124C99.0966 33.4685 97.083 31.5085 97.083 27.5885V18.8225C97.083 18.7265 97.0449 18.6344 96.9771 18.5665C96.9093 18.4986 96.8174 18.4605 96.7216 18.4605H95.1911C95.0955 18.4605 95.0039 18.4224 94.9363 18.3547C94.8687 18.287 94.8307 18.1952 94.8307 18.0995V14.8905C94.8307 14.7947 94.8687 14.7029 94.9363 14.6352C95.0039 14.5675 95.0955 14.5295 95.1911 14.5295H96.7216C96.8174 14.5295 96.9093 14.4913 96.9771 14.4234C97.0449 14.3556 97.083 14.2635 97.083 14.1675V10.2075C97.083 10.1116 97.1209 10.0197 97.1885 9.95185C97.256 9.88399 97.3477 9.84574 97.4434 9.84547H101.537C101.632 9.84574 101.724 9.88399 101.792 9.95185C101.859 10.0197 101.897 10.1116 101.897 10.2075V14.1665C101.897 14.2625 101.935 14.3546 102.003 14.4224C102.071 14.4903 102.163 14.5285 102.258 14.5285H105.769C105.864 14.5285 105.956 14.5665 106.023 14.6342C106.091 14.7019 106.129 14.7937 106.129 14.8895V18.0985C106.129 18.1942 106.091 18.286 106.023 18.3537C105.956 18.4214 105.864 18.4595 105.769 18.4595L102.256 18.4605Z" fill="#082952"/>
<path d="M113.055 32.5665C111.61 31.7683 110.421 30.5753 109.626 29.1265C108.795 27.6452 108.38 25.9358 108.38 23.9985C108.381 22.0612 108.807 20.3505 109.659 18.8665C110.48 17.4163 111.691 16.2261 113.153 15.4315C114.632 14.6228 116.282 14.2182 118.102 14.2175C119.923 14.2168 121.572 14.6215 123.051 15.4315C124.513 16.2267 125.724 17.4168 126.545 18.8665C127.398 20.3485 127.824 22.0578 127.825 23.9945C127.826 25.9312 127.39 27.6418 126.518 29.1265C125.675 30.5794 124.447 31.7701 122.969 32.5665C121.479 33.3752 119.812 33.7795 117.969 33.7795C116.148 33.7768 114.51 33.3725 113.055 32.5665ZM120.409 28.9765C121.19 28.5357 121.825 27.8751 122.235 27.0765C122.691 26.2332 122.918 25.2075 122.918 23.9995C122.918 22.1995 122.446 20.8152 121.502 19.8465C121.057 19.3765 120.519 19.0046 119.922 18.7544C119.326 18.5043 118.684 18.3813 118.037 18.3935C116.672 18.3935 115.529 18.8778 114.608 19.8465C113.687 20.8152 113.226 22.1995 113.225 23.9995C113.225 25.7995 113.675 27.1842 114.573 28.1535C115.472 29.1228 116.603 29.6072 117.967 29.6065C118.822 29.609 119.663 29.3906 120.408 28.9725L120.409 28.9765Z" fill="#082952"/>
<path d="M138.531 15.1105C139.454 14.5884 140.49 14.2981 141.549 14.2645C141.598 14.2622 141.647 14.2698 141.693 14.2869C141.738 14.304 141.78 14.3302 141.816 14.364C141.851 14.3977 141.879 14.4383 141.898 14.4832C141.918 14.5282 141.928 14.5766 141.928 14.6255V18.9195C141.928 19.0155 141.89 19.1076 141.822 19.1754C141.754 19.2433 141.662 19.2815 141.566 19.2815H140.668C139.166 19.2815 138.035 19.6345 137.273 20.3405C136.512 21.0465 136.131 22.2771 136.13 24.0325V33.1065C136.13 33.2023 136.092 33.2942 136.025 33.3621C135.957 33.43 135.866 33.4682 135.77 33.4685H131.714C131.618 33.4685 131.526 33.4303 131.458 33.3624C131.39 33.2946 131.352 33.2025 131.352 33.1065V14.8905C131.352 14.7946 131.391 14.7028 131.458 14.6351C131.526 14.5675 131.618 14.5295 131.714 14.5295H135.77C135.865 14.5295 135.957 14.5675 136.025 14.6352C136.092 14.7029 136.13 14.7947 136.13 14.8905V16.3535C136.131 16.4275 136.153 16.4996 136.196 16.5602C136.238 16.6208 136.298 16.6669 136.368 16.6923C136.437 16.7177 136.513 16.7211 136.584 16.7022C136.655 16.6833 136.719 16.6429 136.767 16.5865C137.265 15.995 137.862 15.4954 138.531 15.1105Z" fill="#082952"/>
<path d="M161.961 23.2465C162.815 24.3115 163.274 25.6404 163.259 27.0065C163.259 28.2831 162.946 29.4058 162.32 30.3745C161.695 31.3431 160.79 32.1008 159.607 32.6475C158.424 33.1948 157.025 33.4685 155.409 33.4685H145.496C145.4 33.4685 145.308 33.4303 145.241 33.3624C145.173 33.2945 145.135 33.2025 145.135 33.1065V9.96647C145.135 9.87063 145.173 9.77881 145.241 9.71114C145.309 9.64347 145.4 9.60547 145.496 9.60547H154.964C156.58 9.60547 157.973 9.86747 159.145 10.3915C160.316 10.9155 161.203 11.6448 161.807 12.5795C162.413 13.5273 162.728 14.6329 162.712 15.7585C162.712 17.1491 162.342 18.3115 161.602 19.2455C161.068 19.9221 160.388 20.4691 159.613 20.8455C159.55 20.8763 159.497 20.9248 159.461 20.9851C159.425 21.0453 159.408 21.1148 159.41 21.1849C159.413 21.2551 159.436 21.3229 159.477 21.3802C159.517 21.4375 159.574 21.4817 159.639 21.5075C160.557 21.8639 161.36 22.4653 161.961 23.2465ZM149.913 19.0905C149.913 19.1862 149.951 19.278 150.018 19.3457C150.086 19.4134 150.178 19.4515 150.273 19.4515H154.282C155.419 19.4515 156.295 19.1951 156.909 18.6825C157.524 18.1698 157.831 17.4348 157.831 16.4775C157.831 15.5201 157.524 14.7795 156.909 14.2555C156.295 13.7315 155.419 13.4685 154.282 13.4665H150.273C150.178 13.4665 150.086 13.5045 150.018 13.5722C149.951 13.6399 149.913 13.7317 149.913 13.8275V19.0905ZM157.438 28.7505C158.087 28.2031 158.411 27.4281 158.411 26.4255C158.411 25.4008 158.07 24.5975 157.387 24.0155C156.705 23.4335 155.784 23.1431 154.623 23.1445H150.273C150.178 23.1445 150.086 23.1825 150.018 23.2502C149.951 23.3179 149.913 23.4097 149.913 23.5055V29.2055C149.913 29.3012 149.951 29.393 150.018 29.4607C150.086 29.5284 150.178 29.5665 150.273 29.5665H154.725C155.886 29.5665 156.791 29.2945 157.438 28.7505Z" fill="#082952"/>
<path d="M167.404 11.467C167.139 11.2059 166.929 10.8946 166.785 10.5512C166.641 10.2078 166.567 9.83927 166.567 9.46699C166.567 9.09471 166.641 8.72615 166.785 8.38279C166.929 8.03942 167.139 7.72811 167.404 7.46699C167.961 6.93366 168.66 6.66699 169.5 6.66699C170.341 6.66699 171.04 6.93366 171.597 7.46699C171.862 7.72825 172.072 8.0396 172.215 8.38295C172.359 8.7263 172.433 9.09479 172.433 9.46699C172.433 9.83919 172.359 10.2077 172.215 10.551C172.072 10.8944 171.862 11.2057 171.597 11.467C171.039 12.0003 170.34 12.267 169.5 12.267C168.661 12.267 167.962 12.0003 167.404 11.467Z" fill="#082952"/>
<path d="M171.498 14.5303H167.44C167.241 14.5303 167.08 14.6919 167.08 14.8913V33.1083C167.08 33.3076 167.241 33.4693 167.44 33.4693H171.498C171.697 33.4693 171.858 33.3076 171.858 33.1083V14.8913C171.858 14.6919 171.697 14.5303 171.498 14.5303Z" fill="#082952"/>
<path d="M192.506 16.3933C193.892 17.8173 194.586 19.8057 194.586 22.3583V33.1073C194.586 33.2033 194.547 33.2954 194.48 33.3633C194.412 33.4312 194.32 33.4693 194.224 33.4693H190.168C190.072 33.4691 189.981 33.4308 189.913 33.3629C189.845 33.2951 189.807 33.2032 189.807 33.1073V23.0073C189.807 21.5033 189.432 20.3467 188.681 19.5373C187.931 18.728 186.907 18.3233 185.609 18.3233C184.29 18.3233 183.249 18.728 182.487 19.5373C181.725 20.3467 181.344 21.5033 181.344 23.0073V33.1073C181.344 33.2033 181.305 33.2954 181.238 33.3633C181.17 33.4312 181.078 33.4693 180.982 33.4693H176.926C176.83 33.4691 176.738 33.4308 176.671 33.3629C176.603 33.2951 176.565 33.2032 176.565 33.1073V14.8913C176.565 14.7956 176.603 14.7038 176.671 14.6361C176.739 14.5684 176.83 14.5303 176.926 14.5303H180.982C181.078 14.5303 181.17 14.5683 181.237 14.636C181.305 14.7037 181.343 14.7955 181.344 14.8913V15.9473C181.343 16.018 181.364 16.0872 181.403 16.1463C181.442 16.2054 181.497 16.2517 181.562 16.2796C181.627 16.3076 181.698 16.3158 181.768 16.3033C181.837 16.2908 181.901 16.2581 181.952 16.2093C182.49 15.6941 183.109 15.2711 183.783 14.9573C184.804 14.4836 185.918 14.2444 187.043 14.2573C189.297 14.2567 191.118 14.9687 192.506 16.3933Z" fill="#082952"/>
</g>
<defs>
<linearGradient id="paint0_linear_350_3801" x1="25.6041" y1="27.9311" x2="25.633" y2="27.9311" gradientUnits="userSpaceOnUse">
<stop stop-color="#CB310E"/>
<stop offset="1" stop-color="#F05F13"/>
</linearGradient>
<linearGradient id="paint1_linear_350_3801" x1="58.4276" y1="-2.76969" x2="58.5652" y2="-2.89426" gradientUnits="userSpaceOnUse">
<stop stop-color="#CB310E"/>
<stop offset="1" stop-color="#F05F13"/>
</linearGradient>
<linearGradient id="paint2_linear_350_3801" x1="-7.30815" y1="19.4258" x2="-7.29483" y2="19.4181" gradientUnits="userSpaceOnUse">
<stop stop-color="#CB310E"/>
<stop offset="1" stop-color="#F05F13"/>
</linearGradient>
<linearGradient id="paint3_linear_350_3801" x1="63.8094" y1="-2.7869" x2="63.9664" y2="-2.87739" gradientUnits="userSpaceOnUse">
<stop stop-color="#CB310E"/>
<stop offset="1" stop-color="#F05F13"/>
</linearGradient>
<linearGradient id="paint4_linear_350_3801" x1="4.35632e-05" y1="20.0003" x2="27.0352" y2="20.0003" gradientUnits="userSpaceOnUse">
<stop stop-color="#ED2C0C"/>
<stop offset="1" stop-color="#E8BE20"/>
</linearGradient>
<linearGradient id="paint5_linear_350_3801" x1="30.9666" y1="11.127" x2="30.9666" y2="40" gradientUnits="userSpaceOnUse">
<stop stop-color="#1F9974"/>
<stop offset="0.29" stop-color="#1F877E"/>
<stop offset="0.86" stop-color="#1E5798"/>
<stop offset="1" stop-color="#1E4A9F"/>
</linearGradient>
<linearGradient id="paint6_linear_350_3801" x1="-7.30815" y1="19.4258" x2="-7.29483" y2="19.4181" gradientUnits="userSpaceOnUse">
<stop stop-color="#CB310E"/>
<stop offset="1" stop-color="#F05F13"/>
</linearGradient>
<linearGradient id="paint7_linear_350_3801" x1="3.62407" y1="42.8857" x2="45.055" y2="8.73012" gradientUnits="userSpaceOnUse">
<stop stop-color="#ED2C0C"/>
<stop offset="0.15" stop-color="#ED350D"/>
<stop offset="0.4" stop-color="#EC4D11"/>
<stop offset="0.7" stop-color="#EA7517"/>
<stop offset="1" stop-color="#E8A11D"/>
</linearGradient>
<linearGradient id="paint8_linear_350_3801" x1="0.73225" y1="39.3781" x2="42.1642" y2="5.22354" gradientUnits="userSpaceOnUse">
<stop offset="0.58" stop-color="#ED2C0C"/>
<stop offset="0.65" stop-color="#ED350D"/>
<stop offset="0.75" stop-color="#EC4D11"/>
<stop offset="0.88" stop-color="#EA7517"/>
<stop offset="1" stop-color="#E8A11D"/>
</linearGradient>
<linearGradient id="paint9_linear_350_3801" x1="14.3994" y1="8.88032" x2="27.0354" y2="8.88032" gradientUnits="userSpaceOnUse">
<stop stop-color="#63B03C"/>
<stop offset="0.32" stop-color="#51A946"/>
<stop offset="0.96" stop-color="#219761"/>
<stop offset="1" stop-color="#1E9663"/>
</linearGradient>
<clipPath id="clip0_350_3801">
<rect width="194.588" height="40" fill="white"/>
</clipPath>
</defs>
</svg>
